<svg width="53" height="52" xmlns="http://www.w3.org/2000/svg" xmlns:xlink="http://www.w3.org/1999/xlink" xml:space="preserve" overflow="hidden"><g transform="translate(-462 -473)"><path d="M43.3333 26 43.3333 12.4551C43.3333 12.1104 43.1964 11.7797 42.9527 11.5359L36.1307 4.7141C35.8869 4.47029 35.5563 4.33333 35.2116 4.33333L9.96667 4.33333C9.2487 4.33333 8.66667 4.91537 8.66667 5.63333L8.66667 46.3667C8.66667 47.0847 9.2487 47.6667 9.96667 47.6667L23.8333 47.6667" stroke="#000000" stroke-width="3.25" stroke-linecap="round" stroke-linejoin="round" fill="none" transform="matrix(1.01923 0 0 1 462 473)"/><path d="M17.3333 21.6667 34.6667 21.6667M17.3333 13 26 13M17.3333 30.3333 23.8333 30.3333" stroke="#000000" stroke-width="3.25" stroke-linecap="round" stroke-linejoin="round" fill="none" transform="matrix(1.01923 0 0 1 462 473)"/><path d="M38.9006 36.702 41.0672 34.5354C42.016 33.5866 43.5543 33.5866 44.5031 34.5354L44.5031 34.5354C45.4519 35.4842 45.4519 37.0225 44.5031 37.9713L42.3365 40.1379M38.9006 36.702 32.4198 43.1828C32.0951 43.5075 31.8819 43.9272 31.8112 44.3809L31.2854 47.7531 34.6574 47.2275C35.1113 47.1566 35.5307 46.9434 35.8555 46.6187L42.3365 40.1379M38.9006 36.702 42.3365 40.1379" stroke="#000000" stroke-width="3.25" stroke-linecap="round" stroke-linejoin="round" fill="none" transform="matrix(1.01923 0 0 1 462 473)"/><path d="M34.6667 4.33333 34.6667 11.7C34.6667 12.418 35.2486 13 35.9667 13L43.3333 13" stroke="#000000" stroke-width="3.25" stroke-linecap="round" stroke-linejoin="round" fill="none" transform="matrix(1.01923 0 0 1 462 473)"/></g></svg>