<svg width="51" height="52" xmlns="http://www.w3.org/2000/svg" xmlns:xlink="http://www.w3.org/1999/xlink" xml:space="preserve" overflow="hidden"><g transform="translate(-699 -256)"><path d="M8.5 25.5 8.5 5.525C8.5 4.82084 9.07084 4.25 9.775 4.25L34.5344 4.25C34.8725 4.25 35.1968 4.38432 35.4359 4.62345L42.1266 11.3141C42.3657 11.5532 42.5 11.8775 42.5 12.2156L42.5 45.475C42.5 46.1792 41.9292 46.75 41.225 46.75L23.375 46.75" stroke="#000000" stroke-width="3.1875" stroke-linecap="round" stroke-linejoin="round" fill="none" transform="matrix(1 0 0 1.01961 699 256)"/><path d="M34 4.25 34 11.475C34 12.1792 34.5708 12.75 35.275 12.75L42.5 12.75" stroke="#000000" stroke-width="3.1875" stroke-linecap="round" stroke-linejoin="round" fill="none" transform="matrix(1 0 0 1.01961 699 256)"/><path d="M4.2334 40.375 10.6084 40.375M16.9834 40.375 10.6084 40.375M10.6084 40.375 10.6084 34M10.6084 40.375 10.6084 46.75" stroke="#000000" stroke-width="3.1875" stroke-linecap="round" stroke-linejoin="round" fill="none" transform="matrix(1 0 0 1.01961 699 256)"/></g></svg>