<svg width="51" height="51" xmlns="http://www.w3.org/2000/svg" xmlns:xlink="http://www.w3.org/1999/xlink" xml:space="preserve" overflow="hidden"><g transform="translate(-461 -261)"><path d="M463.125 305.625 463.125 267.375C463.125 265.028 465.028 263.125 467.375 263.125L505.625 263.125C507.972 263.125 509.875 265.028 509.875 267.375L509.875 305.625C509.875 307.972 507.972 309.875 505.625 309.875L467.375 309.875C465.028 309.875 463.125 307.972 463.125 305.625Z" stroke="#000000" stroke-width="3.1875" fill="none"/><path d="M492.875 275.875 497.125 275.875 501.375 275.875" stroke="#000000" stroke-width="3.1875" stroke-linecap="round" stroke-linejoin="round" fill="none"/><path d="M492.875 293.938 497.125 293.938 501.375 293.938" stroke="#000000" stroke-width="3.1875" stroke-linecap="round" stroke-linejoin="round" fill="none"/><path d="M492.875 300.312 497.125 300.312 501.375 300.312" stroke="#000000" stroke-width="3.1875" stroke-linecap="round" stroke-linejoin="round" fill="none"/><path d="M471.625 275.875 475.875 275.875M480.125 275.875 475.875 275.875M475.875 275.875 475.875 271.625M475.875 275.875 475.875 280.125" stroke="#000000" stroke-width="3.1875" stroke-linecap="round" stroke-linejoin="round" fill="none"/><path d="M472.87 300.13 475.876 297.125M478.881 294.12 475.876 297.125M475.876 297.125 472.87 294.12M475.876 297.125 478.881 300.13" stroke="#000000" stroke-width="3.1875" stroke-linecap="round" stroke-linejoin="round" fill="none"/></g></svg>