<svg width="60" height="60" xmlns="http://www.w3.org/2000/svg" xmlns:xlink="http://www.w3.org/1999/xlink" xml:space="preserve" overflow="hidden"><g transform="translate(-461 -399)"><path d="M478.5 444 487.25 444 496 444" stroke="#000000" stroke-width="3.75" stroke-linecap="round" stroke-linejoin="round" fill="none"/><path d="M478.5 434 479.75 434 481 434" stroke="#000000" stroke-width="3.75" stroke-linecap="round" stroke-linejoin="round" fill="none"/><path d="M478.5 424 482.25 424 486 424" stroke="#000000" stroke-width="3.75" stroke-linecap="round" stroke-linejoin="round" fill="none"/><path d="M478.5 404 502.25 404 513.5 415.25 513.5 446.5" stroke="#000000" stroke-width="3.75" stroke-linecap="round" stroke-linejoin="round" fill="none"/><path d="M468.5 450.25 468.5 415.25C468.5 413.179 470.179 411.5 472.25 411.5L496.629 411.5C497.026 411.5 497.408 411.658 497.689 411.939L505.561 419.811C505.842 420.092 506 420.474 506 420.871L506 450.25C506 452.321 504.321 454 502.25 454L472.25 454C470.179 454 468.5 452.321 468.5 450.25Z" stroke="#000000" stroke-width="3.75" stroke-linecap="round" stroke-linejoin="round" fill="none"/><path d="M496 411.5 496 420C496 420.828 496.672 421.5 497.5 421.5L506 421.5" stroke="#000000" stroke-width="3.75" stroke-linecap="round" stroke-linejoin="round" fill="none"/></g></svg>