<svg width="61" height="61" xmlns="http://www.w3.org/2000/svg" xmlns:xlink="http://www.w3.org/1999/xlink" xml:space="preserve" overflow="hidden"><g transform="translate(-457 -330)"><path d="M487.5 385.917C501.537 385.917 512.917 374.537 512.917 360.5 512.917 346.463 501.537 335.083 487.5 335.083 473.463 335.083 462.083 346.463 462.083 360.5 462.083 374.537 473.463 385.917 487.5 385.917Z" stroke="#000000" stroke-width="3.8125" stroke-linecap="round" stroke-linejoin="round" fill="none"/><path d="M495.125 351.604C493.384 349.863 490.318 348.652 487.5 348.576M479.875 368.125C481.513 370.309 484.559 371.555 487.5 371.66M487.5 348.576C484.147 348.486 481.146 350.003 481.146 354.146 481.146 361.771 495.125 357.958 495.125 365.583 495.125 369.932 491.405 371.801 487.5 371.66M487.5 348.576 487.5 343.979M487.5 371.66 487.5 377.021" stroke="#000000" stroke-width="3.8125" stroke-linecap="round" stroke-linejoin="round" fill="none"/></g></svg>