<svg width="36" height="37" xmlns="http://www.w3.org/2000/svg" xmlns:xlink="http://www.w3.org/1999/xlink" xml:space="preserve" overflow="hidden"><g transform="translate(-703 -413)"><path d="M13.5 31.5 22.5 31.5M13.5 31.5 13.5 24M13.5 31.5 5.4 31.5C4.90295 31.5 4.5 31.0971 4.5 30.6L4.5 24.9C4.5 24.4029 4.90295 24 5.4 24L13.5 24M22.5 31.5 22.5 13.5M22.5 31.5 30.6 31.5C31.0971 31.5 31.5 31.0971 31.5 30.6L31.5 5.4C31.5 4.90295 31.0971 4.5 30.6 4.5L23.4 4.5C22.9029 4.5 22.5 4.90295 22.5 5.4L22.5 13.5M22.5 13.5 14.4 13.5C13.9029 13.5 13.5 13.9029 13.5 14.4L13.5 24" stroke="#000000" stroke-width="2.25" fill="none" transform="matrix(1 0 0 1.02778 703 413)"/></g></svg>