<svg width="59" height="59" xmlns="http://www.w3.org/2000/svg" xmlns:xlink="http://www.w3.org/1999/xlink" xml:space="preserve" overflow="hidden"><g transform="translate(-689 -180)"><path d="M709.896 215.646 701.292 234.083" stroke="#000000" stroke-width="3.6875" stroke-linecap="round" stroke-linejoin="round" fill="none"/><path d="M708.667 194.75C708.667 194.75 711.125 192.141 711.125 189.833 711.125 186.556 708.667 184.917 708.667 184.917" stroke="#000000" stroke-width="3.6875" stroke-linecap="round" stroke-linejoin="round" fill="none"/><path d="M718.5 194.75C718.5 194.75 720.958 192.141 720.958 189.833 720.958 186.556 718.5 184.917 718.5 184.917" stroke="#000000" stroke-width="3.6875" stroke-linecap="round" stroke-linejoin="round" fill="none"/><path d="M728.333 194.75C728.333 194.75 730.792 192.141 730.792 189.833 730.792 186.556 728.333 184.917 728.333 184.917" stroke="#000000" stroke-width="3.6875" stroke-linecap="round" stroke-linejoin="round" fill="none"/><path d="M729.562 223.021 707.438 223.021" stroke="#000000" stroke-width="3.6875" stroke-linejoin="round" fill="none"/><path d="M727.104 215.646 732.267 226.708" stroke="#000000" stroke-width="3.6875" stroke-linecap="round" stroke-linejoin="round" fill="none"/><path d="M734.479 234.083C736.516 234.083 738.167 232.432 738.167 230.396 738.167 228.359 736.516 226.708 734.479 226.708 732.443 226.708 730.792 228.359 730.792 230.396 730.792 232.432 732.443 234.083 734.479 234.083Z" stroke="#000000" stroke-width="3.6875" stroke-linecap="round" stroke-linejoin="round" fill="none"/><path d="M718.5 216.875C727.507 216.875 734.898 209.955 735.646 201.141 735.715 200.329 735.048 199.667 734.233 199.667L702.767 199.667C701.952 199.667 701.285 200.329 701.354 201.141 702.102 209.955 709.493 216.875 718.5 216.875Z" stroke="#000000" stroke-width="3.6875" fill="none"/></g></svg>