<svg width="44" height="44" xmlns="http://www.w3.org/2000/svg" xmlns:xlink="http://www.w3.org/1999/xlink" xml:space="preserve" overflow="hidden"><g transform="translate(-699 -342)"><path d="M717.333 358.5 710 358.5" stroke="#000000" stroke-width="2.75" stroke-linecap="round" stroke-linejoin="round" fill="none"/><path d="M727.417 362.167C724.885 362.167 722.833 360.115 722.833 357.583 722.833 355.052 724.885 353 727.417 353 729.948 353 732 355.052 732 357.583 732 360.115 729.948 362.167 727.417 362.167Z" stroke="#000000" stroke-width="2.75" stroke-linecap="round" stroke-linejoin="round" fill="none"/><path d="M710 353 715.5 353" stroke="#000000" stroke-width="2.75" stroke-linecap="round" stroke-linejoin="round" fill="none"/><path d="M732 375 723.75 369.5 719.167 373.167 710 365.833" stroke="#000000" stroke-width="2.75" stroke-linecap="round" stroke-linejoin="round" fill="none"/><path d="M704.5 379.4 704.5 348.6C704.5 347.992 704.992 347.5 705.6 347.5L736.4 347.5C737.008 347.5 737.5 347.992 737.5 348.6L737.5 379.4C737.5 380.008 737.008 380.5 736.4 380.5L705.6 380.5C704.992 380.5 704.5 380.008 704.5 379.4Z" stroke="#000000" stroke-width="2.75" fill="none"/></g></svg>