<svg width="43" height="43" xmlns="http://www.w3.org/2000/svg" xmlns:xlink="http://www.w3.org/1999/xlink" xml:space="preserve" overflow="hidden"><g transform="translate(-705 -480)"><path d="M726.5 506.875C729.469 506.875 731.875 504.469 731.875 501.5 731.875 498.531 729.469 496.125 726.5 496.125 723.531 496.125 721.125 498.531 721.125 501.5 721.125 504.469 723.531 506.875 726.5 506.875Z" stroke="#000000" stroke-width="2.6875" stroke-linecap="round" stroke-linejoin="round" fill="none"/><path d="M740.157 498.625 738.19 493.876 740.833 490.75 737.25 487.167 734.141 489.824 729.291 487.829 728.176 483.583 724.674 483.583 723.542 487.885 718.804 489.883 715.75 487.167 712.167 490.75 714.771 493.955 712.834 498.716 708.583 499.708 708.583 503.292 712.885 504.466 714.882 509.204 712.167 512.25 715.75 515.833 718.959 513.218 723.628 515.139 724.708 519.417 728.292 519.417 729.375 515.14 734.124 513.174C734.915 513.739 737.25 515.833 737.25 515.833L740.833 512.25 738.174 509.113 740.142 504.363 744.417 503.251 744.417 499.708 740.157 498.625Z" stroke="#000000" stroke-width="2.6875" stroke-linecap="round" stroke-linejoin="round" fill="none"/></g></svg>